<svg width="53" height="51" viewBox="0 0 53 51" fill="none" xmlns="http://www.w3.org/2000/svg">
<g clip-path="url(#clip0_436_131)">
<path d="M51.6016 25.5C51.6016 39.0128 40.4271 50 26.6016 50C12.776 50 1.60156 39.0128 1.60156 25.5C1.60156 11.9872 12.776 1 26.6016 1C40.4271 1 51.6016 11.9872 51.6016 25.5Z" stroke="white" stroke-width="2"/>
<path d="M38.2752 33.885L33.6014 29.4067C33.3904 29.2046 33.1045 29.0923 32.8045 29.0923H32.0403C33.3342 27.5067 34.103 25.5124 34.103 23.3428C34.103 18.1818 29.7386 14 24.3523 14C18.9659 14 14.6016 18.1818 14.6016 23.3428C14.6016 28.5039 18.9659 32.6857 24.3523 32.6857C26.6165 32.6857 28.6979 31.949 30.3527 30.7093V31.4415C30.3527 31.7289 30.4699 32.0029 30.6809 32.2051L35.3546 36.6833C35.7953 37.1056 36.5079 37.1056 36.9438 36.6833L38.2705 35.4122C38.7111 34.9899 38.7111 34.3072 38.2752 33.885ZM24.3523 29.0923C21.038 29.0923 18.3518 26.523 18.3518 23.3428C18.3518 20.1672 21.0333 17.5934 24.3523 17.5934C27.6666 17.5934 30.3527 20.1627 30.3527 23.3428C30.3527 26.5185 27.6713 29.0923 24.3523 29.0923Z" fill="white"/>
</g>
<defs>
<clipPath id="clip0_436_131">
<rect width="53" height="51" fill="white"/>
</clipPath>
</defs>
</svg>
