<svg width="872" height="212" viewBox="0 0 872 212" fill="none" xmlns="http://www.w3.org/2000/svg">
<path d="M201.1 69.6172L164.5 210.017H123.1L100.7 117.617L77.5 210.017H36.1L0.5 69.6172H37.1L57.3 171.817L82.3 69.6172H119.9L143.9 171.817L164.3 69.6172H201.1Z" fill="black"/>
<path d="M305.652 185.217H253.252L244.852 210.017H209.052L259.852 69.6172H299.452L350.252 210.017H314.052L305.652 185.217ZM296.852 158.817L279.452 107.417L262.252 158.817H296.852Z" fill="black"/>
<path d="M466.712 69.6172V97.0172H429.513V210.017H395.312V97.0172H358.112V69.6172H466.712Z" fill="black"/>
<path d="M584.877 69.6172V97.0172H547.677V210.017H513.477V97.0172H476.277V69.6172H584.877Z" fill="black"/>
<path d="M666.194 69.6172V157.417C666.194 173.284 669.794 184.951 676.994 192.417C684.194 199.751 693.994 203.417 706.394 203.417C718.66 203.417 728.327 199.751 735.394 192.417C742.46 185.084 745.994 173.417 745.994 157.417V69.6172H754.994V157.217C754.994 175.484 750.594 189.084 741.794 198.017C732.994 206.951 721.194 211.417 706.394 211.417C691.594 211.417 679.66 206.951 670.594 198.017C661.66 188.951 657.194 175.351 657.194 157.217V69.6172H666.194Z" fill="black"/>
<path d="M871.9 109.217C871.9 121.617 868.033 131.284 860.3 138.217C852.567 145.017 841.1 148.417 825.9 148.417H795.9V210.017H786.9V69.6172H825.9C841.367 69.6172 852.9 73.2172 860.5 80.4172C868.1 87.4839 871.9 97.0839 871.9 109.217ZM825.9 140.417C850.567 140.417 862.9 130.017 862.9 109.217C862.9 98.9505 859.967 91.1505 854.1 85.8172C848.233 80.3505 838.833 77.6172 825.9 77.6172H795.9V140.417H825.9Z" fill="black"/>
<path d="M708.645 2.43021C706.302 0.087065 702.503 0.0870652 700.16 2.43021L661.976 40.614C659.633 42.9571 659.633 46.7561 661.976 49.0993C664.319 51.4424 668.118 51.4424 670.461 49.0993L704.402 15.1581L738.343 49.0993C740.687 51.4424 744.486 51.4424 746.829 49.0993C749.172 46.7561 749.172 42.9571 746.829 40.614L708.645 2.43021ZM710.402 143.026L710.402 6.67285L698.402 6.67285L698.402 143.026L710.402 143.026Z" fill="#EBFF00"/>
<circle cx="257.621" cy="47.624" r="12.5" fill="#EBFF00"/>
<circle cx="299.203" cy="47.624" r="12.5" fill="#EBFF00"/>
</svg>
